<?xml version="1.0" encoding="UTF-8" standalone="no"?>
<svg width="37px" height="32px" viewBox="0 0 37 32" version="1.1" xmlns="http://www.w3.org/2000/svg" xmlns:xlink="http://www.w3.org/1999/xlink" xmlns:sketch="http://www.bohemiancoding.com/sketch/ns">
    <!-- Generator: Sketch 3.3.3 (12072) - http://www.bohemiancoding.com/sketch -->
    <title>am-logo</title>
    <desc>Created with Sketch.</desc>
    <defs></defs>
    <g id="Welcome" stroke="none" stroke-width="1" fill="none" fill-rule="evenodd" sketch:type="MSPage">
        <g id="Desktop-HD" sketch:type="MSArtboardGroup" transform="translate(-154.000000, -60.000000)" fill="#4D4D4D">
            <path d="M185.666667,60 C182.751222,60 180.388889,62.3348889 180.388889,65.2155 L180.388889,86.4522222 C180.388889,87.1710556 179.797778,87.7558333 179.069444,87.7558333 C178.341111,87.7558333 177.75,87.1710556 177.75,86.4522222 L177.75,65.2155 C177.75,62.3348889 175.386611,60 172.472222,60 C169.557833,60 167.194444,62.3348889 167.194444,65.2155 L167.194444,86.4522222 C167.194444,87.1710556 166.603333,87.7558333 165.875,87.7558333 C165.145611,87.7558333 164.555556,87.1710556 164.555556,86.4522222 L164.555556,65.2155 C164.555556,62.3348889 162.193222,60 159.277778,60 C156.363389,60 154,62.3348889 154,65.2155 L154,91.6666667 L157.958333,91.6666667 L157.958333,86.4522222 L160.597222,86.4522222 C160.597222,89.3328333 162.960611,91.6666667 165.875,91.6666667 C168.789389,91.6666667 171.152778,89.3328333 171.152778,86.4522222 L171.152778,65.2155 C171.152778,64.4956111 171.743889,63.9118889 172.472222,63.9118889 C173.201611,63.9118889 173.791667,64.4956111 173.791667,65.2155 L173.791667,86.4522222 C173.791667,89.3328333 176.154,91.6666667 179.069444,91.6666667 C181.984889,91.6666667 184.347222,89.3328333 184.347222,86.4522222 L184.347222,65.2155 C184.347222,64.4956111 184.938333,63.9118889 185.666667,63.9118889 C186.395,63.9118889 186.986111,64.4956111 186.986111,65.2155 L186.986111,91.6666667 L190.944444,91.6666667 L190.944444,65.2155 C190.944444,62.3348889 188.582111,60 185.666667,60 L185.666667,60 Z M157.958333,82.5392778 L157.958333,65.2155 C157.958333,64.4956111 158.549444,63.9118889 159.277778,63.9118889 C160.006111,63.9118889 160.597222,64.4956111 160.597222,65.2155 L160.597222,82.5392778 L157.958333,82.5392778 L157.958333,82.5392778 Z" id="am-logo" sketch:type="MSShapeGroup"></path>
        </g>
    </g>
</svg>