<?xml version="1.0" encoding="UTF-8" standalone="no"?>
<svg width="37px" height="32px" viewBox="0 0 37 32" version="1.1" xmlns="http://www.w3.org/2000/svg" xmlns:xlink="http://www.w3.org/1999/xlink" xmlns:sketch="http://www.bohemiancoding.com/sketch/ns">
    <!-- Generator: Sketch 3.3.3 (12072) - http://www.bohemiancoding.com/sketch -->
    <title>am-logo</title>
    <desc>Created with Sketch.</desc>
    <defs></defs>
    <g id="Welcome" stroke="none" stroke-width="1" fill="none" fill-rule="evenodd" sketch:type="MSPage">
        <g id="Profile" sketch:type="MSArtboardGroup" transform="translate(-153.000000, -62.000000)" fill="#4D4D4D">
            <path d="M184.666667,62.2288889 C181.751222,62.2288889 179.388889,64.5637778 179.388889,67.4443889 L179.388889,88.6811111 C179.388889,89.3999444 178.797778,89.9847222 178.069444,89.9847222 C177.341111,89.9847222 176.75,89.3999444 176.75,88.6811111 L176.75,67.4443889 C176.75,64.5637778 174.386611,62.2288889 171.472222,62.2288889 C168.557833,62.2288889 166.194444,64.5637778 166.194444,67.4443889 L166.194444,88.6811111 C166.194444,89.3999444 165.603333,89.9847222 164.875,89.9847222 C164.145611,89.9847222 163.555556,89.3999444 163.555556,88.6811111 L163.555556,67.4443889 C163.555556,64.5637778 161.193222,62.2288889 158.277778,62.2288889 C155.363389,62.2288889 153,64.5637778 153,67.4443889 L153,93.8955556 L156.958333,93.8955556 L156.958333,88.6811111 L159.597222,88.6811111 C159.597222,91.5617222 161.960611,93.8955556 164.875,93.8955556 C167.789389,93.8955556 170.152778,91.5617222 170.152778,88.6811111 L170.152778,67.4443889 C170.152778,66.7245 170.743889,66.1407778 171.472222,66.1407778 C172.201611,66.1407778 172.791667,66.7245 172.791667,67.4443889 L172.791667,88.6811111 C172.791667,91.5617222 175.154,93.8955556 178.069444,93.8955556 C180.984889,93.8955556 183.347222,91.5617222 183.347222,88.6811111 L183.347222,67.4443889 C183.347222,66.7245 183.938333,66.1407778 184.666667,66.1407778 C185.395,66.1407778 185.986111,66.7245 185.986111,67.4443889 L185.986111,93.8955556 L189.944444,93.8955556 L189.944444,67.4443889 C189.944444,64.5637778 187.582111,62.2288889 184.666667,62.2288889 L184.666667,62.2288889 Z M156.958333,84.7681667 L156.958333,67.4443889 C156.958333,66.7245 157.549444,66.1407778 158.277778,66.1407778 C159.006111,66.1407778 159.597222,66.7245 159.597222,67.4443889 L159.597222,84.7681667 L156.958333,84.7681667 L156.958333,84.7681667 Z" id="am-logo" sketch:type="MSShapeGroup"></path>
        </g>
    </g>
</svg>