<?xml version="1.0" encoding="UTF-8" standalone="no"?>
<svg width="32px" height="27px" viewBox="0 0 32 27" version="1.1" xmlns="http://www.w3.org/2000/svg" xmlns:xlink="http://www.w3.org/1999/xlink" xmlns:sketch="http://www.bohemiancoding.com/sketch/ns">
    <!-- Generator: Sketch 3.3.3 (12072) - http://www.bohemiancoding.com/sketch -->
    <title>am-logo</title>
    <desc>Created with Sketch.</desc>
    <defs></defs>
    <g id="Welcome" stroke="none" stroke-width="1" fill="none" fill-rule="evenodd" sketch:type="MSPage">
        <g id="Desktop-HD" sketch:type="MSArtboardGroup" transform="translate(-153.000000, -60.000000)" fill="#50E3C2">
            <path d="M179.666667,60.2288889 C177.211556,60.2288889 175.222222,62.1554695 175.222222,64.5323405 L175.222222,82.0553405 C175.222222,82.6484695 174.724444,83.1309857 174.111111,83.1309857 C173.497778,83.1309857 173,82.6484695 173,82.0553405 L173,64.5323405 C173,62.1554695 171.009778,60.2288889 168.555556,60.2288889 C166.101333,60.2288889 164.111111,62.1554695 164.111111,64.5323405 L164.111111,82.0553405 C164.111111,82.6484695 163.613333,83.1309857 163,83.1309857 C162.385778,83.1309857 161.888889,82.6484695 161.888889,82.0553405 L161.888889,64.5323405 C161.888889,62.1554695 159.899556,60.2288889 157.444444,60.2288889 C154.990222,60.2288889 153,62.1554695 153,64.5323405 L153,86.3579211 L156.333333,86.3579211 L156.333333,82.0553405 L158.555556,82.0553405 C158.555556,84.4322115 160.545778,86.3579211 163,86.3579211 C165.454222,86.3579211 167.444444,84.4322115 167.444444,82.0553405 L167.444444,64.5323405 C167.444444,63.9383405 167.942222,63.4566953 168.555556,63.4566953 C169.169778,63.4566953 169.666667,63.9383405 169.666667,64.5323405 L169.666667,82.0553405 C169.666667,84.4322115 171.656,86.3579211 174.111111,86.3579211 C176.566222,86.3579211 178.555556,84.4322115 178.555556,82.0553405 L178.555556,64.5323405 C178.555556,63.9383405 179.053333,63.4566953 179.666667,63.4566953 C180.28,63.4566953 180.777778,63.9383405 180.777778,64.5323405 L180.777778,86.3579211 L184.111111,86.3579211 L184.111111,64.5323405 C184.111111,62.1554695 182.121778,60.2288889 179.666667,60.2288889 L179.666667,60.2288889 Z M156.333333,78.8266631 L156.333333,64.5323405 C156.333333,63.9383405 156.831111,63.4566953 157.444444,63.4566953 C158.057778,63.4566953 158.555556,63.9383405 158.555556,64.5323405 L158.555556,78.8266631 L156.333333,78.8266631 L156.333333,78.8266631 Z" id="am-logo" sketch:type="MSShapeGroup"></path>
        </g>
    </g>
</svg>