<?xml version="1.0" encoding="UTF-8" standalone="no"?>
<svg width="18px" height="18px" viewBox="0 0 18 18" version="1.1" xmlns="http://www.w3.org/2000/svg" xmlns:xlink="http://www.w3.org/1999/xlink" xmlns:sketch="http://www.bohemiancoding.com/sketch/ns">
    <!-- Generator: Sketch 3.3.3 (12072) - http://www.bohemiancoding.com/sketch -->
    <title>dribbble</title>
    <desc>Created with Sketch.</desc>
    <defs></defs>
    <g id="Welcome" stroke="none" stroke-width="1" fill="none" fill-rule="evenodd" sketch:type="MSPage">
        <path d="M17.0422511,7.65883535 C16.929878,7.1051336 16.7597997,6.56054212 16.5401152,6.04024468 C16.3254926,5.53006976 16.0572143,5.03811537 15.7464164,4.57855304 C15.4386557,4.12303972 15.0853383,3.69384495 14.6965879,3.30514025 C14.3068251,2.91542329 13.8785922,2.56214741 13.4220129,2.25442285 C12.9623966,1.94264929 12.4703843,1.67642706 11.9601494,1.45980517 C11.4397908,1.24115877 10.8951353,1.07008821 10.3423808,0.958740513 C9.77545307,0.842331553 9.19232746,0.782608696 8.60920184,0.782608696 C8.02506385,0.782608696 7.44193823,0.842331553 6.87501055,0.958740513 C6.32225605,1.07008821 5.77760053,1.24115877 5.2572419,1.45980517 C4.74700699,1.67642706 4.25499475,1.94264929 3.794366,2.25442285 C3.33879911,2.56214741 2.91056624,2.91542329 2.52080345,3.30514025 C2.13104067,3.69384495 1.77873561,4.12303972 1.47097487,4.57855304 C1.15916464,5.03811537 0.891898732,5.53006976 0.676263738,6.04024468 C0.45657926,6.56054212 0.287513326,7.1051336 0.174127789,7.65883535 C0.0587175102,8.22367187 0,8.80774117 0,9.39079822 C0,9.97486753 0.0587175102,10.5589368 0.174127789,11.1257979 C0.287513326,11.6774751 0.45657926,12.2230788 0.676263738,12.742364 C0.891898732,13.2525389 1.15916464,13.7455056 1.47097487,14.2060802 C1.77873561,14.6615935 2.13104067,15.0887637 2.52080345,15.4784807 C2.91056624,15.8681977 3.33879911,16.2204613 3.794366,16.5281858 C4.25499475,16.8399594 4.74700699,17.1071939 5.2572419,17.3228035 C5.77760053,17.5424622 6.32225605,17.710496 6.87501055,17.8238682 C7.44193823,17.9412894 8.02506385,18 8.60920184,18 C9.19232746,18 9.77545307,17.9412894 10.3423808,17.8238682 C10.8951353,17.710496 11.4397908,17.5424622 11.9601494,17.3228035 C12.4703843,17.1071939 12.9623966,16.8399594 13.4220129,16.5281858 C13.8785922,16.2204613 14.3068251,15.8681977 14.6965879,15.4784807 C15.0853383,15.0887637 15.4386557,14.6615935 15.7464164,14.2060802 C16.0572143,13.7455056 16.3254926,13.2525389 16.5401152,12.742364 C16.7597997,12.2230788 16.929878,11.6774751 17.0422511,11.1257979 C17.1586738,10.5589368 17.2173913,9.97486753 17.2173913,9.39079822 C17.2173913,8.80774117 17.1586738,8.22367187 17.0422511,7.65883535 L17.0422511,7.65883535 Z M15.9590143,9.31791609 C15.8527154,9.2946343 13.3643078,8.75915308 10.8384425,9.07700016 C10.7857992,8.95148093 10.7331559,8.82494945 10.6795003,8.69841797 C10.5256199,8.33805632 10.3616158,7.98174368 10.1905251,7.63150455 C13.0940048,6.44615766 14.2724045,4.74152559 14.2865776,4.72128055 C15.3171712,5.97444831 15.941804,7.57380619 15.9590143,9.31791609 L15.9590143,9.31791609 Z M13.4645325,3.87402577 C13.4463098,3.90236882 12.3995184,5.49666545 9.62359744,6.53624807 C8.3672452,4.22730166 6.98637134,2.39310135 6.87602292,2.24733709 C7.43181452,2.11270759 8.01190303,2.03982546 8.60920184,2.03982546 C10.4699395,2.03982546 12.1686978,2.73423022 13.4645325,3.87402577 L13.4645325,3.87402577 Z M6.84767653,2.2534106 C6.84767653,2.25442285 6.84666416,2.25442285 6.84666416,2.25442285 C6.84666416,2.25442285 6.83755282,2.25644735 6.824392,2.25948411 C6.8314786,2.25745961 6.83957757,2.25644735 6.84767653,2.2534106 L6.84767653,2.2534106 Z M5.47186453,2.74232823 C5.56905213,2.87392097 6.92967857,4.71621929 8.20222875,6.97860212 C4.67209154,7.91695956 1.60764493,7.87950625 1.41326973,7.87646949 C1.89110878,5.59890288 3.42080115,3.71105323 5.47186453,2.74232823 L5.47186453,2.74232823 Z M1.25635224,9.39079822 C1.25635224,9.31285483 1.26040173,9.23592369 1.26242647,9.15899255 C1.39200994,9.16202931 5.02540897,9.24402171 8.81066364,8.11131191 C9.02123678,8.52329841 9.22269858,8.94237066 9.40695008,9.36043067 C9.30976248,9.38776147 9.21358724,9.41711677 9.11741201,9.44849658 C5.14993059,10.7310196 3.13733731,14.3002196 3.13733731,14.3002196 C3.13733731,14.3002196 3.14037442,14.3032563 3.14037442,14.3042686 C1.96906133,13.0015005 1.25635224,11.2796601 1.25635224,9.39079822 L1.25635224,9.39079822 Z M8.60920184,16.7427832 C6.82945386,16.7427832 5.19751202,16.1101258 3.92496184,15.0583962 C4.02214945,15.1363396 4.0899783,15.1869522 4.0899783,15.1869522 C4.0899783,15.1869522 5.49919854,12.1137556 9.85947986,10.5943656 C9.87567779,10.5882921 9.89187572,10.5832309 9.90908603,10.5781696 C10.9437291,13.2667105 11.3699372,15.5179585 11.4792732,16.1607384 C10.5974982,16.5352716 9.62663456,16.7427832 8.60920184,16.7427832 L8.60920184,16.7427832 Z M12.7174028,15.4886032 C12.6424874,15.0452369 12.2506998,12.887116 11.2859104,10.238053 C13.6599201,9.85845857 15.7160453,10.5093365 15.8679009,10.5589368 C15.5409052,12.6067223 14.3675673,14.374114 12.7174028,15.4886032 L12.7174028,15.4886032 Z" id="dribbble" fill="#FFFFFF" sketch:type="MSShapeGroup"></path>
    </g>
</svg>