<?xml version="1.0" encoding="UTF-8" standalone="no"?>
<svg width="17px" height="17px" viewBox="0 0 17 17" version="1.1" xmlns="http://www.w3.org/2000/svg" xmlns:xlink="http://www.w3.org/1999/xlink" xmlns:sketch="http://www.bohemiancoding.com/sketch/ns">
    <!-- Generator: Sketch 3.3.3 (12072) - http://www.bohemiancoding.com/sketch -->
    <title>instagram</title>
    <desc>Created with Sketch.</desc>
    <defs></defs>
    <g id="Welcome" stroke="none" stroke-width="1" fill="none" fill-rule="evenodd" sketch:type="MSPage">
        <path d="M13.2793775,0.565217391 L3.67714426,0.565217391 C2.00959139,0.565217391 0.652173913,1.92171459 0.652173913,3.59018774 L0.652173913,13.192421 C0.652173913,14.8608941 2.00959139,16.2173913 3.67714426,16.2173913 L13.2793775,16.2173913 C14.9469303,16.2173913 16.3043478,14.8608941 16.3043478,13.192421 L16.3043478,3.59018774 C16.3043478,1.92171459 14.9469303,0.565217391 13.2793775,0.565217391 L13.2793775,0.565217391 Z M14.1472044,2.36989243 L14.4932308,2.36805186 L14.4932308,5.02122786 L11.8483374,5.02951041 L11.8391345,2.37633441 L14.1472044,2.36989243 L14.1472044,2.36989243 Z M6.24473394,6.78449016 C6.74536791,6.09059675 7.55889811,5.63597693 8.47826087,5.63597693 C9.39762362,5.63597693 10.2111538,6.09059675 10.7117878,6.78449016 C11.0384883,7.23726942 11.2335883,7.79127981 11.2335883,8.39130435 C11.2335883,9.90977136 9.99764817,11.1457115 8.47826087,11.1457115 C6.95979386,11.1457115 5.72385374,9.90977136 5.72385374,8.39130435 C5.72385374,7.79127981 5.91895374,7.23726942 6.24473394,6.78449016 L6.24473394,6.78449016 Z M14.7794388,13.192421 C14.7794388,14.0197554 14.1067119,14.6924823 13.2793775,14.6924823 L3.67714426,14.6924823 C2.84980981,14.6924823 2.17708291,14.0197554 2.17708291,13.192421 L2.17708291,6.78449016 L4.51460182,6.78449016 C4.31213956,7.281443 4.19894474,7.82348971 4.19894474,8.39130435 C4.19894474,10.7509101 6.11865516,12.6715408 8.47826087,12.6715408 C10.8387869,12.6715408 12.7584973,10.7509101 12.7584973,8.39130435 C12.7584973,7.82348971 12.6434619,7.281443 12.4428402,6.78449016 L14.7794388,6.78449016 L14.7794388,13.192421 L14.7794388,13.192421 Z" id="instagram" fill="#FFFFFF" sketch:type="MSShapeGroup"></path>
    </g>
</svg>