<?xml version="1.0" encoding="UTF-8" standalone="no"?>
<svg width="16px" height="13px" viewBox="0 0 16 13" version="1.1" xmlns="http://www.w3.org/2000/svg" xmlns:xlink="http://www.w3.org/1999/xlink" xmlns:sketch="http://www.bohemiancoding.com/sketch/ns">
    <!-- Generator: Sketch 3.3.3 (12072) - http://www.bohemiancoding.com/sketch -->
    <title>medium</title>
    <desc>Created with Sketch.</desc>
    <defs></defs>
    <g id="Welcome" stroke="none" stroke-width="1" fill="none" fill-rule="evenodd" sketch:type="MSPage">
        <path d="M15.8695652,1.97501246 L15.2508593,1.97501246 C15.021106,1.97501246 14.6954713,2.31047331 14.6954713,2.52527795 L14.6954713,10.2993776 C14.6954713,10.5141822 15.021106,10.8066822 15.2508593,10.8066822 L15.8695652,10.8066822 L15.8695652,12.6521739 L10.2605077,12.6521739 L10.2605077,10.8066822 L11.4346017,10.8066822 L11.4346017,2.63405136 L11.3776156,2.63405136 L8.63595248,12.6521739 L6.51389978,12.6521739 L3.80751372,2.63405136 L3.73876862,2.63405136 L3.73876862,10.8066822 L4.91286257,10.8066822 L4.91286257,12.6521739 L0.217391304,12.6521739 L0.217391304,10.8066822 L0.818910933,10.8066822 C1.06675511,10.8066822 1.39148526,10.5141822 1.39148526,10.2993776 L1.39148526,2.52527795 C1.39148526,2.31047331 1.06675511,1.97501246 0.818910933,1.97501246 L0.217391304,1.97501246 L0.217391304,0.130434783 L6.0887656,0.130434783 L8.01724658,7.3798627 L8.06970994,7.3798627 L10.0153772,0.130434783 L15.8695652,0.130434783 L15.8695652,1.97501246" id="medium" fill="#FFFFFF" sketch:type="MSShapeGroup"></path>
    </g>
</svg>