<?xml version="1.0" encoding="UTF-8" standalone="no"?>
<svg width="17px" height="15px" viewBox="0 0 17 15" version="1.1" xmlns="http://www.w3.org/2000/svg" xmlns:xlink="http://www.w3.org/1999/xlink" xmlns:sketch="http://www.bohemiancoding.com/sketch/ns">
    <!-- Generator: Sketch 3.3.3 (12072) - http://www.bohemiancoding.com/sketch -->
    <title>twitter</title>
    <desc>Created with Sketch.</desc>
    <defs></defs>
    <g id="Welcome" stroke="none" stroke-width="1" fill="none" fill-rule="evenodd" sketch:type="MSPage">
        <path d="M14.4987253,2.35752909 C15.1952043,1.91801117 15.7296217,1.22109038 15.9804313,0.39088985 C15.3283263,0.798868297 14.607731,1.09391505 13.8389031,1.25364726 C13.2253841,0.561813489 12.3485151,0.130434783 11.3780748,0.130434783 C9.51629573,0.130434783 8.00757941,1.72266987 8.00757941,3.6862569 C8.00757941,3.96502522 8.03555433,4.23667171 8.09343347,4.49610938 C5.29208296,4.3475686 2.80810308,2.93337897 1.14407772,0.78055505 C0.853717357,1.3075696 0.687797147,1.91801117 0.687797147,2.56914884 C0.687797147,3.8022408 1.28298767,4.89086159 2.1878316,5.52979043 C1.63508579,5.51147718 1.11513815,5.34971017 0.659822228,5.08518549 L0.659822228,5.1289338 C0.659822228,6.85241382 1.82126369,8.29000371 3.36567216,8.61557254 C3.08206436,8.69899955 2.78495142,8.74071306 2.47626266,8.74071306 C2.25921588,8.74071306 2.04699235,8.71934761 1.84248605,8.6776341 C2.2707917,10.0897889 3.51615793,11.1194004 4.99207607,11.1468702 C3.83738717,12.1011939 2.38365603,12.6689045 0.804520085,12.6689045 C0.532488114,12.6689045 0.2633501,12.6536435 0,12.6200692 C1.49231723,13.6283152 3.26438366,14.2173913 5.16860746,14.2173913 C11.3713223,14.2173913 14.7611107,8.79870501 14.7611107,4.09932236 C14.7611107,3.94467716 14.7591814,3.79104937 14.7524289,3.63945638 C15.4112864,3.13787689 15.9842899,2.51115689 16.4347826,1.79795766 C15.8299456,2.08079558 15.1797699,2.27206727 14.4987253,2.35752909 Z" id="twitter" fill="#FFFFFF" sketch:type="MSShapeGroup"></path>
    </g>
</svg>